<?xml version="1.0" encoding="utf-8"?>
<!-- Generator: Adobe Illustrator 18.0.0, SVG Export Plug-In . SVG Version: 6.00 Build 0)  -->
<!DOCTYPE svg PUBLIC "-//W3C//DTD SVG 1.1//EN" "http://www.w3.org/Graphics/SVG/1.1/DTD/svg11.dtd">
<svg version="1.1" id="Layer_1" xmlns="http://www.w3.org/2000/svg" xmlns:xlink="http://www.w3.org/1999/xlink" x="0px" y="0px"
	 viewBox="0 0 300 48" enable-background="new 0 0 300 48" xml:space="preserve">
<g>
	<path fill="#FFFFFF" d="M60.7,24.9c0-9,6.6-16,15.8-16s15.8,7,15.8,16c0,9-6.6,16-15.8,16S60.7,33.9,60.7,24.9 M88,24.9
		c0-6.7-4.5-12.1-11.5-12.1c-7,0-11.5,5.5-11.5,12.1c0,6.7,4.5,12.1,11.5,12.1C83.5,37,88,31.5,88,24.9"/>
	<path fill="#FFFFFF" d="M119.5,16.2c-1.7-2.2-4.6-3.5-7.3-3.5c-6.8,0-11.3,5.5-11.3,12.4c0,6.4,4.3,11.9,11.3,11.9
		c3.5,0,6.1-1.5,7.9-4.1l3.5,2.6c-0.9,1.2-4.6,5.3-11.5,5.3c-9.7,0-15.6-8.1-15.6-15.7c0-9.4,6.5-16.2,15.8-16.2
		c4,0,8.2,1.5,10.7,4.7L119.5,16.2z"/>
	<polygon fill="#FFFFFF" points="128.5,9.7 132.7,9.7 132.7,22.3 148.4,22.3 148.4,9.7 152.5,9.7 152.5,40.1 148.4,40.1 148.4,26.1 
		132.7,26.1 132.7,40.1 128.5,40.1 	"/>
	<path fill="#FFFFFF" d="M169.9,9.7h3.7l13,30.4h-4.8l-3-7.5h-14.5l-3,7.5h-4.8L169.9,9.7z M177.3,28.9l-5.7-14h-0.1l-5.8,14H177.3z
		"/>
	<path fill="#FFFFFF" d="M21.8,20.1c0-2.3,1.9-4.2,4.2-4.2c2.3,0,4.2,1.9,4.2,4.2c0,2.3-1.9,4.2-4.2,4.2V24v-0.3
		c2,0,3.7-1.6,3.7-3.7c0-2-1.6-3.7-3.7-3.7c-2,0-3.7,1.6-3.7,3.7c0,2,1.6,3.7,3.7,3.7V24v0.3C23.7,24.3,21.8,22.4,21.8,20.1"/>
	<path fill="#FFFFFF" d="M18.4,20.1c0-4.2,3.4-7.6,7.6-7.6c4.2,0,7.6,3.4,7.6,7.6c0,4.2-3.4,7.6-7.6,7.6v-0.3v-0.3c3.9,0,7-3.2,7-7
		c0-3.9-3.2-7-7-7c-3.9,0-7,3.2-7,7c0,3.9,3.1,7,7,7v0.3v0.3C21.8,27.6,18.4,24.3,18.4,20.1"/>
	<path fill="#FFFFFF" d="M14.8,20.1c0-6.2,5-11.2,11.2-11.2c6.2,0,11.2,5,11.2,11.2c0,6.2-5,11.2-11.2,11.2V31v-0.3
		c5.9,0,10.7-4.8,10.7-10.7c0-5.9-4.8-10.7-10.7-10.7c-5.9,0-10.7,4.8-10.7,10.7c0,5.9,4.8,10.6,10.7,10.7V31v0.3
		C19.8,31.3,14.8,26.3,14.8,20.1"/>
	<path fill="#FFFFFF" d="M11.3,20.1C11.3,12,17.9,5.4,26,5.4c8.1,0,14.7,6.6,14.7,14.7c0,8.1-6.6,14.7-14.7,14.7v-0.3v-0.3
		c7.8,0,14.2-6.3,14.2-14.2c0-7.8-6.3-14.2-14.2-14.2c-7.8,0-14.1,6.3-14.2,14.2c0,7.8,6.3,14.1,14.2,14.2v0.3v0.3
		C17.9,34.8,11.3,28.2,11.3,20.1"/>
	<path fill="#FFFFFF" d="M7.4,20.1C7.4,9.9,15.7,1.5,26,1.5c10.2,0,18.6,8.3,18.6,18.6c0,10.2-8.3,18.5-18.6,18.5v-0.3v-0.3
		c10,0,18-8.1,18-18c0-10-8.1-18-18-18c-10,0-18,8.1-18,18c0,10,8.1,18,18,18v0.3v0.3C15.7,38.6,7.4,30.3,7.4,20.1"/>
	<rect x="25.7" y="1.8" fill="#FFFFFF" width="0.5" height="14.3"/>
	
		<rect x="17.9" y="5.1" transform="matrix(-0.7089 0.7053 -0.7053 -0.7089 39.6299 8.1131)" fill="#FFFFFF" width="0.5" height="14.3"/>
	<rect x="7.7" y="19.8" fill="#FFFFFF" width="14.3" height="0.5"/>
	
		<rect x="11" y="27.7" transform="matrix(-0.7077 0.7065 -0.7065 -0.7077 50.7254 34.9101)" fill="#FFFFFF" width="14.3" height="0.5"/>
	<rect x="25.7" y="24" fill="#FFFFFF" width="0.5" height="14.3"/>
	
		<rect x="33.6" y="20.8" transform="matrix(-0.7097 0.7045 -0.7045 -0.7097 77.5661 23.9362)" fill="#FFFFFF" width="0.5" height="14.3"/>
	<rect x="29.9" y="19.8" fill="#FFFFFF" width="14.3" height="0.5"/>
	
		<rect x="26.7" y="12" transform="matrix(-0.7071 0.7071 -0.7071 -0.7071 66.4387 -3.0526)" fill="#FFFFFF" width="14.3" height="0.5"/>
	<path fill="#FFFFFF" d="M23.2,21.3c0.2,0,0.1,0.1,0.2,0.2c0,0,0,0,0.1,0c0.2-0.3,0.4-0.6,0.5-0.9c0,0,0.1-0.1,0.1-0.1
		c0-0.2-0.2-0.2-0.3-0.4c-0.1,0.2-0.3,0-0.5,0.2c0,0,0,0.1,0,0.1c0.1,0,0.2,0,0.2,0.1c0,0.1,0,0.2,0,0.3c0,0-0.1,0-0.1,0
		c-0.1-0.2-0.2-0.2-0.4-0.2c0.1,0.1-0.1,0,0,0.1c-0.2-0.1-0.5,0.1-0.7,0.1c-0.1,0-0.2,0-0.2-0.1c-0.1,0.1-0.2,0.3-0.3,0.2
		c0,0-0.1-0.1-0.1-0.1c0.1-0.1,0.2-0.2,0.3-0.3c0.1-0.1,0-0.2,0.1-0.3c0.1-0.1,0.2-0.3,0.3-0.3c0.1,0,0.4,0.1,0.5,0
		c0,0,0.1,0.1,0.2,0.1c0,0,0,0.1,0,0.1c-0.1,0.1-0.2,0.1-0.3,0.2c0,0.1,0,0.2,0.1,0.2c0.1,0.1,0.1-0.1,0.2-0.2c0.1-0.1,0.1,0,0.2,0
		c0,0,0-0.1,0-0.1c0.1,0,0.3,0,0.4,0c0.2,0,0.1-0.3,0.1-0.5c0,0,0-0.1,0-0.1c0,0,0-0.1,0-0.1c0-0.1,0.3-0.1,0.3,0c0,0,0,0.1,0,0.1
		c0,0.1,0,0.1,0.1,0.1c0,0,0,0,0-0.1c0-0.1,0-0.2,0.1-0.2c0.1-0.1,0.1,0.1,0.2,0.1c0.1,0,0.2,0,0.3,0c0.1,0,0.1-0.1,0-0.2
		c0,0-0.1,0-0.1,0c-0.1,0.1-0.2,0.1-0.3,0.1c-0.1,0-0.1-0.1-0.2-0.2c-0.1-0.1-0.2,0.1-0.3,0c-0.1,0-0.1-0.1-0.1-0.2
		c0,0,0.1-0.1,0.1-0.1c0.1-0.1,0.3-0.1,0.3-0.2c0.1-0.1,0.1-0.2,0.1-0.3c0-0.1,0.1-0.1,0.1-0.1c0.1,0,0.3,0,0.4-0.1
		c0.1-0.1,0.2-0.2,0.4-0.3c0.1,0,0.1-0.1,0.2-0.1c0,0,0.1-0.1,0.1-0.1c0-0.2,0-0.4,0-0.7c0-0.1,0.1-0.1,0.1-0.2c0,0-0.1,0-0.1,0
		c-0.1,0-0.1-0.1,0-0.2c0.1-0.1,0.2,0,0.2-0.1c0.1-0.1,0-0.3-0.1-0.4c-0.1-0.1-0.3,0.1-0.4,0c0,0.1-0.1,0.1-0.1,0.1
		c-0.2,0.1-0.2-0.2-0.2-0.3c0,0,0,0,0,0c0,0,0.1-0.1,0.1-0.1c0,0-0.1,0-0.1,0c-0.2,0.1-0.2,0.2-0.4,0.3c0,0,0,0,0,0.1c0,0,0,0,0.1,0
		c0,0.1,0,0.3-0.1,0.2c0,0,0,0,0,0c0,0-0.1-0.1-0.2,0c0,0.1,0.2,0.2,0.1,0.3c-0.1,0.2-0.3,0.2-0.5,0.3c-0.4,0.1-0.8,0-1.2,0.1
		c-0.2,0-0.4,0-0.6,0c-0.2,0-0.2,0.1-0.3,0.2c0,0,0,0,0,0c0-0.1,0-0.1,0-0.2c0-0.1-0.1-0.1-0.1-0.1c-0.3-0.5-0.9-0.4-1.4-0.3
		c-0.1,0-0.1,0.1-0.2,0.2c-0.1,0.1-0.2,0-0.3,0.1c0,0-0.1,0.1-0.1,0.1c-0.1,0-0.3-0.1-0.4,0c-0.1,0.1-0.2,0.1-0.3,0.1
		c0,0,0,0.1,0,0.1c0,0-0.1,0-0.1,0c-0.1,0-0.3,0-0.4,0.2h0c0.1,0.2,0,0.3-0.2,0.4c-0.2,0.1-0.3,0-0.5,0.1c-0.1,0-0.2,0.1-0.2,0.2
		c-0.3,0.5-0.5,0.9-0.5,1.5v0.1c0,0,0.1,0.1,0.1,0.1c-0.3,0.5-0.4,0.8-0.7,1.3c-0.1,0.2-0.3,0.7,0,0.9c0.1,0.1-0.1,0.3-0.2,0.3
		c-0.2,0-0.5,0-0.5-0.3c0-0.1-0.2-0.1-0.3-0.1h0l-0.1,0c-0.1,0-0.3,0-0.4,0c-0.2,0.1-0.2,0.3-0.3,0.5c-0.1,0.2-0.3,0.1-0.4,0.3
		c0,0.1,0,0.2,0,0.3c0,0.1-0.1,0.1-0.2,0.1c0,0,0,0.1-0.1,0.1c-0.1,0.2-0.1,0.4,0,0.6c0,0.1,0,0.1,0,0.2c0.1,0.2,0,0.4-0.1,0.6
		c-0.1,0.2-0.4,0.2-0.6,0.3c-0.1,0-0.2-0.1-0.3,0c-0.3,0-0.5-0.1-0.8,0c0,0-0.1,0-0.1,0.1c-0.1,0.1-0.2-0.1-0.2-0.2
		c-0.1-0.1-0.1-0.2-0.2-0.2c-0.2-0.1-0.4,0-0.5,0.2c0.1,0,0,0.1,0.1,0.1c-0.2,0-0.3,0.2-0.4,0.2c-0.2,0.1-0.2-0.2-0.2-0.4
		c0-0.1-0.2-0.1-0.3-0.1c0,0,0,0,0,0.1c0,0-0.1,0-0.1,0c-0.1,0.1,0.1,0.1,0.1,0.2c0,0,0,0.1-0.1,0.1c-0.1,0-0.1,0-0.2,0
		c0,0.1-0.1,0.1-0.1,0.1c0,0,0,0,0,0c0,0,0,0,0,0c-0.1,0-0.1,0.1-0.2,0c-0.1,0,0-0.1-0.1-0.2c0,0-0.1,0-0.1,0c0,0.1,0,0.2-0.1,0.2
		c0,0,0,0.1,0,0.1c0.1,0,0.2,0,0.2,0c0.1,0.1,0.1,0.3,0.1,0.4c0,0,0,0,0,0c0,0.1,0,0.3-0.1,0.2c-0.1-0.1,0-0.3-0.1-0.4
		c0,0-0.1,0-0.2,0c0.1,0.2-0.1,0.4,0.1,0.6c0.1,0.1-0.2,0.2-0.1,0.3c0.1,0.1,0.2,0.1,0.2,0.1c0,0,0-0.1,0-0.1c0,0,0.2-0.1,0.2,0
		c0,0,0,0.1,0,0.2c-0.1,0-0.1,0-0.2,0c0.1,0.1,0,0.2,0,0.3c0,0,0,0.1,0,0.1c0,0.1,0.2,0,0.2,0.1c0,0.1-0.1,0.1,0,0.2
		c0,0.1,0.1,0,0.2,0.1c0.1,0,0,0.1,0,0.2c0.1,0,0.2,0.1,0.1,0.1c0.1,0,0.1-0.1,0.1-0.1c0.2,0,0.1-0.1,0.1-0.3c-0.1,0,0-0.1-0.1,0
		c0-0.1,0-0.2,0-0.3c0-0.1-0.2-0.1-0.2-0.2c0.1,0,0.2,0,0.3-0.1c0-0.1,0.1,0,0.2,0.1c0,0,0,0,0,0.1c0.1,0,0.1,0.1,0.1,0.1
		c0.1,0.1,0.1,0.2,0.2,0.2c0.1,0,0.3,0,0.4,0c0-0.1,0-0.1,0-0.2c0.1-0.1,0.1,0.1,0.2,0.1c0,0.1,0,0.2,0.1,0.3c0,0,0.1,0,0.1,0
		c0,0,0.1,0.1,0.1,0.1c0,0,0.1,0,0.1,0c0.1,0,0.1,0.1,0.1,0.1c0,0,0,0,0,0.1c0.1,0,0.3,0,0.3,0.1c0.1,0.2,0.2,0.3,0.3,0.4
		c0,0.1,0.2,0.1,0.2,0.2c0,0.1,0,0.1,0.1,0.1c0.1,0.1,0.2,0.1,0.3,0.2c0,0,0.1-0.1,0.2-0.1c0,0,0.1,0,0.1,0c0.1,0.2,0.1,0.5,0.3,0.6
		c0.1,0.1,0.1,0.2,0.2,0.2c0.1,0,0.1,0,0.2,0c0,0,0.1,0.1,0.1,0.1c0.1,0.1,0.2,0.2,0.3,0.3c0,0,0,0.1,0.1,0.1c0.1,0,0.2-0.1,0.3,0
		c0.1,0.1,0.2,0.1,0.3,0.2c0,0,0.1,0.1,0.1,0c0,0,0-0.1,0-0.2c0-0.1,0.1,0,0.2-0.1c0.1,0,0.1-0.2,0.2-0.2c0.2,0,0.2,0.2,0.3,0.2
		c0,0,0.1,0,0.1,0c0.1,0.1,0.1,0.3,0.2,0.3c0.2,0,0.3,0.2,0.5,0.2c0.1,0,0.2,0.1,0.3,0.1c0,0,0.1,0,0.1,0c0.1,0,0.1-0.1,0.2-0.1
		c0.2-0.1,0.4-0.1,0.5-0.2c0,0,0.1-0.1,0.1-0.1c0.3-0.1,0.6,0.1,0.9,0c0.1,0,0.2,0,0.3-0.1c0.2-0.1,0.2-0.4,0.2-0.6
		c-0.1-0.3-0.2-0.6-0.4-0.9c-0.1-0.1-0.2-0.2-0.4-0.3c0,0-0.1,0-0.2-0.1c-0.1-0.1-0.1-0.2-0.1-0.3c0,0-0.1,0-0.1-0.1
		c0-0.1,0-0.2,0-0.2c0,0,0-0.1-0.1-0.1c-0.2,0-0.3-0.1-0.5-0.1c-0.1,0-0.1-0.1-0.2-0.1c0,0,0-0.1,0-0.1c0.1-0.1,0.2-0.1,0.3-0.2
		c0-0.1,0-0.1,0-0.2c0.1-0.1,0-0.2,0-0.2c0,0,0-0.1-0.1-0.1c0-0.2,0.1-0.3,0-0.4c-0.1-0.1-0.2-0.2-0.3-0.4c0,0-0.1-0.1-0.1-0.1
		c0-0.2,0.1-0.4,0-0.6c0-0.1-0.1-0.2,0-0.2c0,0,0.1-0.1,0.2-0.1c0.1,0,0.2-0.1,0.1-0.2c-0.1-0.1-0.2,0-0.3,0c0,0-0.1,0-0.1-0.1
		c0-0.1,0.1-0.2,0-0.2c-0.1,0-0.1-0.1-0.1-0.1c-0.1-0.1,0-0.2,0.1-0.3c0,0,0-0.1-0.1,0c0-0.1,0.1-0.2,0-0.3c0-0.1-0.1-0.2-0.2-0.2
		c0,0,0,0,0,0c-0.1,0.1-0.1,0.1-0.2,0c0,0,0-0.1,0-0.1c0-0.1,0.1,0,0.2-0.1c0.1-0.1,0-0.2,0-0.3c-0.1-0.1-0.2-0.2-0.2-0.4
		c-0.2,0-0.4,0-0.4-0.3c0-0.2,0-0.4-0.1-0.6c0-0.1,0-0.3,0.1-0.4c0,0,0.1-0.1,0.1-0.1c0.2,0,0.4,0,0.6-0.2c0.1-0.1-0.1-0.3,0-0.4
		c0.2-0.2,0.5,0,0.8-0.2c0.1-0.1,0.1-0.2,0-0.2c0-0.1-0.1-0.2-0.1-0.3c-0.1-0.1-0.3-0.1-0.3-0.2c0-0.1,0-0.1,0-0.2
		c0-0.1,0.1-0.2,0.2-0.2c0.2-0.1,0.4,0,0.6,0.1c0.1,0,0.1,0.1,0.2,0.2c0,0,0,0.1,0,0.1c0.1,0.3,0.1,0.5,0.1,0.8
		c0,0.1-0.1,0.1-0.1,0.2c0.1-0.1,0.1,0,0.1,0.1c0,0.2,0.1,0.4,0,0.5c-0.2,0.1-0.2,0-0.4,0c-0.1,0-0.2,0-0.2,0.1
		c0,0.1,0.1,0.2,0.1,0.2c0.4,0.1,0.7,0.2,1.2,0.2c0.1,0,0.2,0.1,0.3,0.2c0.1,0,0.2,0.1,0.3-0.1c0,0,0.1,0,0.1,0
		c0,0.1,0.1,0.1,0.1,0.1c0.1,0.1,0.1,0.4,0.3,0.3c0.1-0.1,0.2,0,0.3,0c-0.1,0.2-0.1,0.3,0.1,0.4c0.1,0.1,0.2,0.2,0.3,0.3
		c0.1,0.1,0.2,0.1,0.2-0.1c0-0.1-0.1-0.3,0.1-0.4c0.2,0.3-0.1,0.6,0.1,0.8c0,0,0,0,0,0.1c0.1,0.1,0.2,0.2,0.3,0.2
		c0.1,0,0.1-0.1,0.2-0.2c0,0,0-0.1,0-0.1c0-0.1,0-0.1,0.1-0.2c0-0.1,0.2-0.2,0.2-0.3c0,0,0-0.1,0-0.1c0-0.2,0.2-0.3,0.4-0.3
		c0,0,0,0,0.1-0.1c0.1-0.1,0.1-0.2,0.1-0.3c0.1-0.1,0.1-0.1,0.2-0.2c0,0,0.1-0.1,0.1-0.2C23.1,21.4,23.1,21.3,23.2,21.3"/>
	<path fill="#FFFFFF" d="M17.9,21c-0.1,0-0.1,0-0.2,0c0,0-0.1,0.1,0,0.1c0,0.1,0.1,0.1,0.1,0.2c0,0.1,0,0.2,0,0.4
		c0,0.1,0.1,0.3,0.2,0.2c0.1-0.1,0.2-0.3,0.1-0.5C18,21.3,18,21.1,17.9,21"/>
	<path fill="#FFFFFF" d="M17.6,22.1c0,0,0,0.1,0.1,0.1c0,0.1,0.2,0.1,0.3,0c0,0,0-0.1,0-0.1c0-0.1-0.1,0-0.2-0.1c0,0-0.1,0-0.1,0
		C17.6,22,17.6,22,17.6,22.1"/>
	<path fill="#FFFFFF" d="M17.9,22.6c0-0.2-0.2-0.3-0.3-0.1c-0.2,0.1,0,0.4,0.2,0.6c0,0,0,0.1,0.1,0.1c0.1,0.1,0.2,0,0.2,0
		c0-0.1,0.1-0.1,0.1-0.2C18.2,22.8,18.1,22.6,17.9,22.6"/>
	<path fill="#FFFFFF" d="M17.6,21.6C17.6,21.5,17.5,21.5,17.6,21.6c-0.1,0-0.2,0.1-0.2,0.1c0,0.1,0,0.2,0.1,0.3c0,0,0.1,0,0.1-0.1
		C17.6,21.8,17.6,21.7,17.6,21.6"/>
	<path fill="#FFFFFF" d="M18.1,22.3c0,0,0.1-0.1,0.1-0.1c0,0,0.1,0,0.1-0.1c0,0,0-0.1,0-0.1c-0.1,0-0.2,0.1-0.3,0.1
		C17.9,22.3,18,22.4,18.1,22.3"/>
	<path fill="#FFFFFF" d="M17.9,23.5c0,0.1,0,0.2,0.1,0.2c0,0,0.1,0,0.1,0c0-0.1,0-0.1,0-0.2c0,0,0,0,0,0C18,23.4,18,23.5,17.9,23.5"
		/>
	<path fill="#FFFFFF" d="M18.3,24.4c0-0.1,0.1-0.2,0-0.2c0,0-0.1,0-0.1,0C18.1,24.3,18.2,24.4,18.3,24.4"/>
	<path fill="#FFFFFF" d="M10.2,27.5c0,0,0,0.1,0,0.2c0,0,0.1,0,0.2,0C10.4,27.6,10.4,27.5,10.2,27.5"/>
	<path fill="#FFFFFF" d="M11.1,28.4c-0.1,0.1,0.1,0.3,0.3,0.3c0-0.1,0-0.1,0-0.2C11.3,28.4,11.1,28.3,11.1,28.4"/>
	<path fill="#FFFFFF" d="M11.4,28.9c0,0.2,0.1,0.4,0.3,0.4C11.8,29.1,11.7,28.9,11.4,28.9"/>
	<path fill="#FFFFFF" d="M24.2,22.4c0.2-0.1,0.5-0.1,0.7-0.1c0.6,0,0.5-0.7,0.8-1.2c0.1-0.1,0-0.4-0.1-0.5c-0.2-0.3-0.8,0-0.9-0.3
		c-0.1-0.2,0.4,0.1,0.4-0.2c0-0.1,0-0.2-0.1-0.2c-0.1,0-0.2-0.1-0.3,0c-0.3,0.3-0.4,0.7-0.5,1c-0.3,0.5-0.9,0.9-1.2,1.6
		c0,0.1,0,0.2,0.1,0.2C23.6,22.9,23.8,22.5,24.2,22.4"/>
	<path fill="#FFFFFF" d="M26.5,21.1c-0.1,0-0.2,0-0.2,0.1c0,0.1,0,0.2,0,0.3c0,0,0.2,0,0.2,0c0.1-0.1,0-0.1-0.1-0.2
		C26.4,21.2,26.5,21.2,26.5,21.1"/>
	<path fill="#FFFFFF" d="M24.8,23c0.2,0.2,0.6,0.1,0.6-0.1c-0.1-0.2-0.4-0.3-0.6-0.2C24.7,22.7,25,22.9,24.8,23"/>
	<path fill="#FFFFFF" d="M25.4,24.6c0.2-0.1,0.1-0.3,0.1-0.4c-0.2,0.1-0.3,0.2-0.3,0.4C25.2,24.6,25.3,24.6,25.4,24.6"/>
	<path fill="#FFFFFF" d="M27.7,21.3c0,0,0-0.1,0-0.2c0,0-0.1,0-0.2,0c-0.1,0-0.1-0.1-0.1-0.2c0-0.1-0.1-0.2-0.1-0.3
		c-0.1,0.1-0.1,0.2-0.1,0.3C27.3,21,27.4,21.3,27.7,21.3"/>
	<path fill="#FFFFFF" d="M24.6,19.7C24.5,19.6,24.5,19.7,24.6,19.7c-0.1,0.1,0,0.1,0.1,0.1C24.7,19.8,24.7,19.7,24.6,19.7"/>
	<path fill="#FFFFFF" d="M9.7,24.5c0,0,0-0.1-0.1-0.1c-0.1,0-0.1,0-0.2,0c0,0,0,0.1,0,0.1C9.6,24.6,9.7,24.6,9.7,24.5"/>
	<path fill="#FFFFFF" d="M10.6,24.5c0.1,0,0.2-0.1,0.1-0.2c0,0,0,0,0,0c-0.1-0.1-0.3-0.1-0.3,0.1C10.4,24.5,10.5,24.6,10.6,24.5"/>
	<path fill="#FFFFFF" d="M25,15.7c0-0.1,0.2-0.1,0.2-0.2c0,0-0.1,0-0.1,0C24.9,15.4,25,15.5,25,15.7C24.9,15.6,24.9,15.6,25,15.7
		C24.9,15.7,25,15.7,25,15.7"/>
	<path fill="#FFFFFF" d="M25.4,15.5c0,0,0.1-0.1,0-0.1c-0.1,0-0.1,0-0.2,0C25.2,15.4,25.3,15.6,25.4,15.5"/>
	<path fill="#FFFFFF" d="M24.1,18.8c-0.1,0.1,0.2,0.3,0.3,0.2c0.1-0.1,0.1-0.2,0-0.3C24.3,18.7,24.1,18.8,24.1,18.8"/>
	<path fill="#FFFFFF" d="M24.4,19.8c0.1-0.1,0-0.1,0-0.2c-0.1,0-0.1,0-0.2,0c0,0,0,0-0.1,0c0,0.1,0,0.1,0.1,0.1
		C24.2,19.7,24.3,19.9,24.4,19.8"/>
	<path fill="#FFFFFF" d="M24,20.1c-0.1,0-0.1,0.2,0,0.2c0.1,0,0.2,0,0.2-0.1c0-0.1,0.1-0.2,0-0.3C24.1,19.9,24.1,20,24,20.1"/>
	<path fill="#FFFFFF" d="M23.7,19.7c0,0.1-0.1,0.3,0,0.4c0,0.1,0.1,0.1,0.1,0c0-0.1,0-0.2,0.1-0.3c0,0-0.1-0.1-0.1,0
		c0,0,0-0.1,0-0.1C23.8,19.7,23.8,19.7,23.7,19.7"/>
	<path fill="#FFFFFF" d="M25.4,26.8C25.4,26.8,25.4,26.8,25.4,26.8C25.4,26.8,25.4,26.8,25.4,26.8L25.4,26.8z"/>
	<path fill="#FFFFFF" d="M33.4,28.6C33.4,28.6,33.4,28.6,33.4,28.6C33.4,28.6,33.4,28.6,33.4,28.6C33.4,28.6,33.4,28.6,33.4,28.6"/>
	<path fill="#FFFFFF" d="M26.1,23.8C26,23.8,26,23.8,26.1,23.8c-0.1-0.1-0.1-0.1-0.2-0.2c0-0.1-0.1,0.1-0.2,0.1c0,0,0,0,0,0.1
		c0.1,0.1,0,0.2-0.1,0.2c0,0.1,0.1,0.1,0.1,0.2c0,0.1-0.1,0.2,0,0.3c0,0-0.1,0.1-0.1,0.2c0,0-0.1,0.1,0,0.1c0.1,0.1,0.2-0.1,0.3-0.1
		c0.1,0,0.1,0,0.2,0c0.1-0.1,0.2-0.1,0.2-0.2c0,0-0.1-0.1-0.2-0.1c0.1-0.2,0-0.2,0-0.4C26,23.9,26.1,23.8,26.1,23.8"/>
	<path fill="#FFFFFF" d="M26.8,26.2C26.8,26.2,26.9,26.2,26.8,26.2C27,26.2,27,26,26.9,26c0-0.1-0.1-0.1-0.2,0
		C26.8,26.1,26.8,26.2,26.8,26.2"/>
	<path fill="#FFFFFF" d="M26.9,25.8c0.1,0,0-0.1,0-0.1c0,0-0.1,0-0.1,0C26.8,25.8,26.8,25.9,26.9,25.8"/>
	<path fill="#FFFFFF" d="M27.7,26.2C27.7,26.2,27.7,26.2,27.7,26.2c-0.1,0-0.2-0.1-0.2-0.1c0,0-0.1,0-0.1,0c0,0.1,0,0.2,0,0.2
		C27.5,26.3,27.6,26.3,27.7,26.2"/>
	<path fill="#FFFFFF" d="M29,26.1c0,0,0-0.1,0-0.1c-0.1,0-0.2,0.1-0.3,0.1c0,0,0,0.1,0,0.1c0,0,0,0-0.1,0
		C28.7,26.3,28.9,26.2,29,26.1"/>
	<path fill="#FFFFFF" d="M29.5,25.7c0,0.2,0.3,0.1,0.3,0c0-0.1-0.1-0.1-0.2,0c0,0,0,0,0-0.1C29.6,25.6,29.5,25.6,29.5,25.7"/>
	<path fill="#FFFFFF" d="M35.5,21.6c0,0.1,0.1,0.1,0.2,0.2c0.1,0,0.3,0,0.3-0.1c0.1-0.2-0.2-0.4-0.4-0.4
		C35.6,21.4,35.6,21.5,35.5,21.6"/>
	<path fill="#FFFFFF" d="M35.5,28.1c-0.1,0-0.2,0-0.2,0c-0.1,0.6-0.7,1.5,0,1.9c0.3,0.2,0.7-0.2,0.7-0.4
		C36.2,29.1,36.1,28.4,35.5,28.1"/>
	<path fill="#FFFFFF" d="M33.6,25.3c-0.1,0.1-0.1,0.3,0,0.3c0.1,0,0.1,0,0.2-0.1c0.1-0.1,0-0.2,0-0.2C33.8,25.3,33.7,25.3,33.6,25.3
		"/>
	<path fill="#FFFFFF" d="M34.1,31.7c-0.1,0.1,0,0.2,0.1,0.3c0-0.1,0.2-0.2,0-0.3C34.2,31.7,34.1,31.7,34.1,31.7"/>
	<path fill="#FFFFFF" d="M37,17c-0.1,0-0.1,0-0.1,0.1c0,0.1,0,0.2,0,0.3c-0.2,0.6-0.9,1.1-0.5,1.7c0,0,0,0,0.1,0
		c0.2-0.1,0.3-0.3,0.4-0.5c0.2-0.4,0.4-0.8,0.5-1.2C37.2,17.2,37.2,17,37,17"/>
	<path fill="#FFFFFF" d="M35.9,19.2c0,0.1,0.1,0.2,0.1,0.1c0.1,0,0.1-0.2,0.1-0.2C36.1,19.1,36,19.1,35.9,19.2"/>
	<path fill="#FFFFFF" d="M29.5,15.3c-0.1-0.2-0.3,0-0.4,0c-0.1,0-0.1-0.1-0.1-0.1c-0.1,0-0.1,0-0.1,0.1c-0.1,0.1,0,0.2,0.1,0.2
		c0.1,0,0.1-0.1,0.2,0c0.1,0.1,0,0.3,0.2,0.3c0.1,0,0.2-0.1,0.3-0.1c0.1,0,0.1-0.2,0.1-0.3c0.1,0,0.3-0.1,0.4,0c0,0,0.1,0.1,0.1,0.2
		c0,0.1,0.1,0.1,0.2,0.1c0.1,0,0.2,0,0.3-0.1c0.1-0.1,0.1-0.3,0-0.4c-0.1,0-0.1,0-0.2,0c-0.1-0.1-0.2-0.1-0.3-0.2
		C29.9,14.8,29.7,15.1,29.5,15.3"/>
	<path fill="#FFFFFF" d="M30.6,15.6c0,0-0.1,0-0.1,0c0,0,0,0,0,0H30.6z"/>
	<path fill="#FFFFFF" d="M28.2,15.5c0.1,0,0.2,0,0.4,0v0c0-0.2-0.2-0.2-0.3-0.1c0,0,0,0,0,0C28.2,15.4,28.2,15.4,28.2,15.5
		C28.1,15.5,28.2,15.5,28.2,15.5"/>
	<path fill="#FFFFFF" d="M28.7,16.3c0.1-0.2,0.3-0.3,0.5-0.4c0,0,0,0,0-0.1c0,0,0,0,0,0.1c0-0.1-0.1-0.2-0.2-0.2
		c0,0.1-0.1,0.1-0.1,0.2c-0.1,0.1-0.2,0.2-0.3,0.3c0,0.1-0.1,0.2,0,0.3C28.6,16.5,28.7,16.4,28.7,16.3"/>
	<path fill="#FFFFFF" d="M26.8,15.1c0,0.1,0,0.1,0,0.1C26.9,15.3,26.9,15.1,26.8,15.1C26.8,15.1,26.8,15.1,26.8,15.1"/>
	<path fill="#FFFFFF" d="M22.3,12.2c0.1,0.1,0.3,0.1,0.5,0.1c0,0,0.1-0.1,0.1-0.2c-0.1-0.1-0.2,0-0.3-0.1l-0.1,0
		C22.3,12,22.3,12.1,22.3,12.2C22.2,12.2,22.3,12.2,22.3,12.2"/>
	<path fill="#FFFFFF" d="M33.8,14.3c-0.1,0.1-0.2,0-0.3,0.1c-0.1,0,0,0.1,0,0.1c0.1,0.1,0.2,0.1,0.3,0c0,0.1,0,0,0.1,0.1
		c0.1,0,0.1-0.1,0.1-0.1c0,0,0,0.1,0,0.1c-0.1,0-0.1,0.1-0.2,0.2c-0.1,0-0.2,0-0.2-0.1c0,0,0,0-0.1,0h0c0,0.1,0,0.2,0,0.2
		c-0.2,0.1-0.5,0.2-0.3,0.5c0.1,0.2,0.4,0.1,0.6,0.1c0,0,0.1,0,0-0.1c0-0.2,0.1-0.2,0.2-0.3c0.1,0,0-0.1-0.1-0.2
		c-0.1,0,0-0.1,0.1-0.1c0.1,0,0.1-0.1,0.2-0.1v-0.1c0.1,0,0.2-0.1,0.2-0.2c0-0.1-0.2-0.3-0.1-0.4c0-0.1,0.1-0.1,0.1-0.1
		c0,0,0.1-0.1,0-0.1c0,0,0,0-0.1,0c0,0-0.1,0-0.1,0.1c-0.1,0-0.3,0-0.4,0.1C33.8,14.1,33.8,14.2,33.8,14.3"/>
	<path fill="#FFFFFF" d="M32.4,15.6c0,0.2,0.2,0.1,0.3,0c-0.1,0,0,0-0.1-0.1C32.6,15.6,32.5,15.6,32.4,15.6"/>
	<path fill="#FFFFFF" d="M34.3,15.3c-0.1,0.1,0.2,0.1,0.3,0.1c0,0,0,0,0,0c0,0,0,0,0,0C34.4,15.3,34.3,15.3,34.3,15.3"/>
	<path fill="#FFFFFF" d="M34.7,14.7c0,0-0.1,0-0.1,0c0.1,0,0.1,0.1,0.1,0.1C34.7,14.8,34.7,14.8,34.7,14.7
		C34.7,14.7,34.7,14.7,34.7,14.7"/>
	<path fill="#FFFFFF" d="M31.9,9.6c0.1,0.1,0.2,0.2,0.2,0.3c0.1,0.1,0,0.3,0,0.4c0,0.1,0.1,0.1,0.1,0.1c0.1,0.1,0,0.2,0,0.3
		c0.1,0.2,0.1,0.3,0.1,0.5c0.1,0,0.1,0.1,0.2,0.1c0,0.1,0.1,0.2,0.1,0.3c0,0.1,0.2,0.1,0.2,0.1c0.1,0.2,0.2,0.3,0.4,0.5
		c0.1,0,0.1,0,0.2,0.1c0,0,0,0.1,0,0.1c0.2,0,0.6,0.2,0.5,0.5c0.1-0.1,0.2-0.1,0.2-0.2c0-0.2,0.1-0.4,0-0.6c0-0.1-0.2-0.1-0.2-0.2
		c0-0.1,0-0.1,0-0.2c0-0.1-0.1-0.1-0.2-0.1c-0.1-0.1-0.1-0.3,0.1-0.3c0,0,0,0,0-0.1c-0.1,0-0.2,0-0.2,0c-0.1,0-0.1-0.1-0.1-0.1
		c0-0.1,0-0.3-0.1-0.4c-0.1-0.1-0.2-0.1-0.3-0.2c-0.1-0.1-0.2-0.1-0.3-0.2c-0.1,0-0.2,0.1-0.2,0c-0.2-0.2-0.3-0.5-0.5-0.7
		c-0.1-0.1-0.2-0.1-0.3-0.1c0,0,0,0,0,0.1C31.8,9.5,31.8,9.5,31.9,9.6C31.9,9.5,31.9,9.6,31.9,9.6"/>
	<path fill="#FFFFFF" d="M30.7,10c-0.1,0.1-0.1,0.3,0,0.3c0.1,0.1,0.3,0,0.5,0c0.1,0,0.1-0.1,0.2-0.2c0.1-0.1,0.3-0.1,0.5-0.1
		c0,0.1,0,0.1,0.1,0.1c0-0.1,0-0.3-0.1-0.3c-0.1-0.1-0.2-0.2-0.2-0.4c0,0-0.1,0-0.1,0c0,0.2-0.2,0.2-0.3,0.2c0,0,0,0.1,0,0.1
		c0,0,0,0,0,0c0,0,0,0,0-0.1c-0.1,0-0.2,0-0.2,0.1C30.9,9.9,30.8,9.9,30.7,10"/>
	<path fill="#FFFFFF" d="M27.7,5.1c-0.1-0.3-0.4-0.5-0.3-0.8c0.4,0.1,0.7,0.1,1.1-0.1c0.3-0.1,0.6,0.1,0.9-0.1c0,0,0-0.1,0-0.2
		c-0.3,0.2-0.6-0.3-0.9-0.1c-0.4,0.2-0.8,0.3-1.2,0.4c-0.3,0.1-1.1,0-1.1,0.5c0.4,0,0.9,0,1.1,0.4C27.5,5.1,27.7,5.1,27.7,5.1"/>
	<path fill="#FFFFFF" d="M29,7c0.1,0.2,0.3,0.2,0.5,0.3c0-0.1,0-0.2-0.1-0.2C29.3,7,29.2,6.9,29,7"/>
	<path fill="#FFFFFF" d="M28.7,7.6c-0.1,0,0,0.1,0.1,0.2C28.8,7.7,28.9,7.5,28.7,7.6"/>
	<path fill="#FFFFFF" d="M28.4,7.2C28.5,7.2,28.5,7.2,28.4,7.2C28.5,7.2,28.5,7.2,28.4,7.2C28.5,7,28.4,7,28.3,7c0,0,0,0.1,0,0.1
		C28.3,7.1,28.4,7.2,28.4,7.2"/>
	<path fill="#FFFFFF" d="M29.6,8.6C29.6,8.7,29.6,8.7,29.6,8.6c0.1,0,0.1,0,0.1-0.1L29.6,8.6c0.1-0.1,0.1-0.2,0.1-0.2
		c0,0-0.1,0-0.1,0C29.5,8.5,29.6,8.6,29.6,8.6"/>
	<path fill="#FFFFFF" d="M30,8.7c0,0.1,0,0.1,0,0.1c0,0,0.1,0,0.1,0C30.1,8.8,30.1,8.7,30,8.7C30.1,8.6,30,8.7,30,8.7"/>
	<path fill="#FFFFFF" d="M29.8,9C29.8,9,29.9,8.9,29.8,9c0.1-0.1,0.1-0.1,0.1-0.1c0,0,0,0,0,0c0,0,0,0,0,0c-0.1-0.1-0.2-0.1-0.2-0.1
		C29.6,8.9,29.8,8.9,29.8,9"/>
	<path fill="#FFFFFF" d="M30,9C30,9,29.9,9,30,9c0,0.2,0.2,0.2,0.3,0.2c0,0,0.1-0.1,0.1-0.2C30.2,9,30.1,9,30,9L30,9z"/>
	<path fill="#FFFFFF" d="M30.6,9.3c0.1,0,0-0.1,0-0.1c0-0.1-0.1-0.1-0.1-0.1c0,0-0.1,0.1,0,0.2C30.5,9.3,30.5,9.3,30.6,9.3"/>
	<path fill="#FFFFFF" d="M30.7,9.6c0,0,0.1,0,0.1-0.1c0,0,0,0,0-0.1c0,0,0,0,0,0c0,0,0-0.1,0-0.1c0,0-0.1,0-0.1,0c0,0,0,0,0,0
		c0,0-0.1-0.1-0.1,0c-0.1,0-0.1,0.1,0,0.2C30.6,9.5,30.7,9.6,30.7,9.6"/>
	<path fill="#FFFFFF" d="M30.4,9.9C30.4,9.9,30.5,9.9,30.4,9.9c0.1-0.1,0.1-0.1,0.1-0.2c0,0,0,0-0.1,0c0,0,0,0.1-0.1,0.1
		C30.3,9.8,30.4,9.9,30.4,9.9"/>
	<path fill="#FFFFFF" d="M34.3,6.7c0.1,0.1,0.2,0,0.3,0.1C34.7,6.9,34.8,7,34.9,7C35,7,35,7,35,6.9c0-0.2-0.1-0.4-0.3-0.5
		c-0.2-0.1-0.4-0.1-0.6-0.1c-0.1,0-0.1,0.1-0.1,0.2C34.2,6.6,34.3,6.6,34.3,6.7"/>
	<path fill="#FFFFFF" d="M39.5,13.3c-0.1-0.2-0.1-0.4-0.2-0.5c-0.1-0.1-0.3-0.1-0.4-0.3c-0.1-0.1,0-0.2,0-0.3c0,0-0.1-0.1-0.1-0.1
		c-0.1-0.2-0.1-0.3-0.3-0.4c0.1-0.2-0.1-0.3-0.3-0.4c0,0,0-0.1,0-0.1c0-0.1-0.1-0.1-0.2-0.1c0,0-0.1,0-0.1,0
		c-0.1-0.1-0.2-0.2-0.3-0.3c-0.1-0.2-0.2-0.3-0.4-0.4c-0.1,0-0.1-0.2-0.1-0.2c-0.1,0-0.3,0-0.3-0.1c0-0.2-0.2-0.4-0.4-0.5
		c-0.3-0.2,0-0.6-0.1-0.8c0-0.1-0.2-0.1-0.3-0.1c0,0-0.1,0-0.1-0.1c-0.1-0.2,0-0.4-0.1-0.5c-0.2-0.2-0.4-0.4-0.6-0.7
		c-0.1-0.1-0.3-0.1-0.4-0.1c0,0-0.1,0-0.1-0.1c-0.1,0-0.1-0.1-0.1-0.1c-0.1-0.1-0.2-0.2-0.4-0.3c-0.3-0.1-0.5-0.1-0.8-0.1
		c-0.2,0-0.5,0.1-0.6,0.2c-0.2,0.1-0.4,0.2-0.7,0.3c-0.1,0,0,0.1,0,0.2c-0.1,0.1-0.2,0.2-0.1,0.3c0,0,0,0,0,0c0.1,0.1,0.1,0,0.2,0
		c0.1,0,0.1,0.1,0.2,0.1c0.1,0.1,0.2,0.2,0.3,0.4c0,0.1-0.1,0.2,0,0.2c0.1,0.1,0.1,0.3,0.1,0.4c0,0.1,0.1,0,0.2,0
		c0.2,0.1,0.2,0.4,0.2,0.6c0,0.1,0,0.3,0,0.4c0.1,0.2,0.1,0.5,0.3,0.6c0-0.1,0.1-0.1,0.1-0.1c0.2,0,0.2-0.1,0.3-0.2
		c0.3-0.2,0.5,0.2,0.6,0.4c0.1,0.2,0,0.5,0.1,0.7c0.1,0.2,0.2,0.4,0.4,0.5c0,0,0.1,0.2,0.1,0.3c0,0.1,0.1,0.1,0.2,0.1
		c0,0,0-0.1,0.1-0.2c0.1,0,0.1,0,0.2,0.1c0.2,0.2,0.2,0.7,0.6,0.7c0,0.1,0,0.1,0.1,0.1c0.1,0,0.1-0.1,0.2,0c0.1,0.1,0.1,0.2,0.2,0.2
		c0.1,0,0.3,0,0.4,0c0.1,0,0.2,0.1,0.2,0.2c0,0.1,0.1,0.1,0.1,0.2c0.3,0.3,0.4,0.6,0.7,0.8c0.1,0.1,0.2,0.2,0.3,0.2
		c0,0,0-0.1,0.1-0.1c0.1,0,0.2-0.1,0.3-0.2c0.1-0.1,0.2-0.3,0.4-0.3c0,0,0-0.1,0-0.1c0.1-0.1,0.3-0.1,0.4-0.2
		C39.6,13.5,39.6,13.3,39.5,13.3"/>
	<path fill="#FFFFFF" d="M34.5,12.7C34.5,12.7,34.5,12.7,34.5,12.7c0.1,0,0.1,0,0.2,0L34.5,12.7z"/>
	<path fill="#FFFFFF" d="M34.2,13.4c0.1,0.1,0.2,0.1,0.2,0.2c0.1,0.1,0.1,0.2,0.2,0.2c0.2,0.1,0.1-0.2,0.2-0.3c0,0,0.1,0,0.1,0
		c0.1-0.1,0-0.3-0.1-0.5c-0.1-0.1-0.2-0.2-0.3-0.3c-0.1,0-0.1,0-0.2,0.1c-0.1,0.1,0,0.3-0.1,0.4C34.3,13.2,34.2,13.3,34.2,13.4"/>
	<path fill="#FFFFFF" d="M35.2,14c-0.1,0.2,0,0.5,0,0.7c0,0.1-0.2,0.1-0.3,0.2c0,0.1-0.1,0.2-0.1,0.2c0,0.2,0.2,0.2,0.3,0.2
		c0.3,0.2,0.6,0.4,0.8,0.7c0.1,0.1,0.1,0.2,0.2,0.3c0.1,0.1,0.3,0.1,0.3,0.3c0,0.1,0.1,0.1,0.2,0.1c0.2-0.1,0.1-0.4,0-0.5
		c-0.1-0.1-0.1-0.2-0.1-0.2c0-0.3-0.1-0.7-0.3-1c-0.1-0.2-0.3-0.3-0.4-0.4c0,0-0.1-0.1,0-0.1c0-0.1,0.1-0.1,0.1-0.2
		c0-0.2-0.2-0.2-0.2-0.4c0,0-0.1,0-0.1,0l0.1,0C35.4,13.8,35.2,13.8,35.2,14"/>
	<path fill="#FFFFFF" d="M37,15.7c0-0.1,0-0.2,0-0.3c0-0.2-0.2-0.2-0.4-0.2c-0.1,0-0.2,0-0.2,0.1c0,0.1,0,0.2,0,0.2
		c0.3,0.3,0.3,0.8,0.4,1.2c0,0.2,0.3,0,0.4-0.1c0-0.1,0-0.2,0-0.3c0-0.1-0.1-0.1-0.1-0.2C37.1,15.9,37,15.8,37,15.7"/>
	<path fill="#FFFFFF" d="M36.5,14.6c-0.1,0.1,0.1,0.2,0,0.3h0.1c0.1,0,0.1-0.1,0.1-0.1C36.6,14.8,36.6,14.7,36.5,14.6
		C36.6,14.6,36.6,14.6,36.5,14.6"/>
	<path fill="#FFFFFF" d="M36.5,14.2c0-0.1,0-0.2-0.1-0.2c0,0.1-0.1,0.1-0.2,0.2c-0.1,0.1,0,0.2,0.1,0.2c0,0,0,0,0,0
		C36.5,14.6,36.6,14.4,36.5,14.2C36.5,14.2,36.5,14.2,36.5,14.2"/>
	<path fill="#FFFFFF" d="M35.9,13.6c0.2,0.1,0,0.3,0.1,0.3c0.1,0.1,0.3,0.1,0.3,0c0.1,0,0-0.2-0.1-0.2c-0.1,0,0-0.1,0-0.2
		c0,0-0.1,0-0.1,0c-0.1-0.1,0.1-0.2,0-0.3c0,0,0-0.1,0-0.1c0,0-0.1,0-0.1,0.1c0,0,0,0.1,0,0.2C35.9,13.5,35.8,13.6,35.9,13.6"/>
	<path fill="#FFFFFF" d="M35.8,12.9c-0.1,0-0.2,0-0.2-0.1c0,0-0.1,0-0.1,0c0,0,0,0,0,0c0,0.1-0.1,0.1,0,0.1c0.1,0,0.1,0.1,0.1,0.2
		c0,0.1,0.2,0,0.2,0.1c0,0.1,0.1,0.1,0.1,0.1c0.1,0,0-0.1,0-0.2c0,0,0-0.1,0,0C35.8,13,35.8,12.9,35.8,12.9"/>
	<path fill="#FFFFFF" d="M26.8,18.7L26.8,18.7C26.9,18.6,26.9,18.6,26.8,18.7c0.1-0.1,0.1-0.2,0-0.2c0,0-0.1,0-0.1,0.1h0
		C26.8,18.6,26.8,18.6,26.8,18.7"/>
	<path fill="#FFFFFF" d="M36.7,17.1c-0.2-0.1-0.3,0-0.5,0.1c-0.3,0.2-0.3,0.6-0.5,0.8c-0.1,0.1-0.3,0.2-0.5,0.2c0,0-0.1,0-0.1-0.1
		c0-0.1,0-0.2,0-0.3c0.1,0,0.1-0.1,0.2-0.2c0.1-0.1,0-0.3,0-0.4c-0.1-0.3-0.4-0.4-0.6-0.4c-0.3,0.1-0.4,0.3-0.6,0.6c0,0-0.1,0-0.1,0
		c-0.1-0.1-0.2-0.2-0.3-0.3c0,0,0,0,0-0.1c0.1,0.1,0.2,0.2,0.3,0.2c0.1-0.1,0-0.2-0.1-0.2c-0.1,0-0.2-0.1-0.3-0.1
		c-0.1,0-0.2-0.1-0.2-0.2c0-0.1,0-0.3-0.2-0.4c-0.1-0.1-0.3-0.1-0.4-0.2c-0.1,0-0.1,0-0.2,0c0,0,0-0.1,0-0.1c0.2,0,0.4,0,0.3-0.2
		c0-0.1-0.1-0.2-0.2-0.1c0,0-0.1,0-0.1,0.1c0,0,0,0.1,0,0.1c0,0.1,0.1,0.2,0,0.2c-0.1,0.1-0.3,0.1-0.4,0.2c0,0-0.1,0-0.1,0
		c-0.1,0-0.3-0.2-0.3-0.1c-0.1,0.1-0.1,0.2-0.2,0.3c-0.1,0-0.2,0-0.3,0.1c-0.2,0.1-0.1,0.3,0,0.4c0,0,0,0.1,0,0.2
		c-0.1,0.1-0.1-0.1-0.2-0.1c0-0.1-0.1-0.3-0.1-0.4c0-0.1,0.2-0.2,0.2-0.4c0-0.1,0.1-0.2,0-0.3c-0.1-0.1-0.2-0.2-0.3-0.1
		c-0.3,0.1-0.3,0.5-0.6,0.4c-0.1-0.1-0.3-0.2-0.4-0.3c-0.1-0.1-0.2-0.1-0.3,0c-0.2,0.1-0.4,0.2-0.6,0.3c-0.2,0.1-0.3,0.3-0.4,0.5
		c-0.1,0.2-0.6,0.4-0.7,0.1c-0.1-0.1-0.2-0.3-0.4-0.3c-0.1,0-0.2,0.2-0.4,0.3c-0.1,0-0.2,0-0.2-0.1c0,0,0-0.1,0-0.1
		c0.2-0.2,0.4-0.3,0.7-0.4c0.1,0,0.1-0.2,0.1-0.3c0,0,0-0.1,0-0.1c0-0.1,0-0.2,0-0.2c-0.3,0-0.6,0.3-0.8,0.6c0,0,0,0.1-0.1,0.1
		c-0.2,0-0.4,0.1-0.6,0c0,0-0.1-0.3-0.1-0.2c-0.1,0.1-0.1,0.2-0.2,0.3c0,0-0.1,0.1-0.1,0.1c-0.1,0.2,0.1,0.4,0.1,0.5
		c0,0.1-0.2,0.1-0.4,0.1c-0.1,0-0.1,0.1-0.1,0.2c0,0.1,0.1,0.1,0.1,0.1c0.1,0.1,0.1,0.3,0.3,0.4c0.2,0.1,0.4,0,0.6,0.1
		c0.1,0,0.3,0.1,0.3,0.3c0,0.1,0.2,0.1,0.2,0.2c0,0,0.1,0.1,0.1,0.1c0.1,0,0.2,0,0.2,0c0.1,0,0.1,0.2,0.1,0.2c0,0.2,0,0.3,0.1,0.5
		c0.1,0.1-0.1,0.2-0.1,0.3c0,0-0.1,0-0.1,0.1c0,0.1,0,0.3,0.1,0.4c0,0.1,0.1,0,0.1,0c0.1,0.1,0.2,0.3,0.3,0.4c0,0.1,0.1,0.1,0.1,0.1
		c-0.1,0-0.1,0.1-0.1,0.1c0,0.1,0.1,0.1,0.2,0c0.1-0.1,0.2-0.1,0.2-0.1c0-0.1,0.1,0,0.2-0.1c0.1,0,0.1,0.2,0.1,0.2
		c-0.1,0.1-0.3,0-0.5,0.1c-0.1,0-0.2,0-0.2,0.1c0,0,0,0.2,0.1,0.2c0.3,0.1,0.1,0.5-0.1,0.7c0,0,0,0.1,0,0.2c0,0-0.1,0.1-0.1,0.1
		c-0.3,0-0.6-0.1-0.8,0c-0.1,0-0.1,0.2-0.2,0.3h0.1c-0.1,0-0.1,0.1-0.1,0.1c0,0.1,0,0.1,0,0.2c-0.3,0.3-0.3,0.6-0.3,0.9
		c0,0.1,0.1,0.2,0.2,0.2c0.1,0,0.2-0.1,0.2-0.1c0.1,0,0.1,0.2,0.1,0.3c0.1,0.1,0.2,0.1,0.3,0c0-0.1,0-0.2,0.1-0.3
		c0-0.1-0.1-0.2-0.1-0.4c0-0.1,0-0.2,0.1-0.3c0,0,0.1,0,0.2,0.1c0,0.1,0,0.2,0.1,0.2c0,0.1,0,0.2,0,0.3c0,0.1,0.1,0.1,0.1,0.2
		c0,0-0.1,0.1-0.1,0.1c0,0.1,0,0.2-0.1,0.3c-0.1,0.1-0.1,0.2-0.2,0.2c-0.2,0-0.5-0.1-0.4-0.4c-0.1,0-0.2,0-0.2,0.1
		c0,0.1,0,0.3-0.1,0.3c-0.1,0.1-0.1,0.2-0.2,0.3c0,0,0,0,0,0.1c-0.1,0.1-0.3,0.2-0.4,0.3c0,0,0,0,0,0c-0.1,0.1-0.3,0-0.3,0.1
		c-0.1,0.1,0.1,0.2,0.2,0.3c0,0.1,0,0.2-0.1,0.2c-0.2,0-0.3,0-0.5,0c0,0,0,0,0,0.1c0,0.1,0,0.3-0.1,0.4c-0.1,0.1,0,0.2,0.1,0.3
		c0.1,0.1,0.1,0.2,0.2,0.3c0.1,0,0.1,0.1,0.2,0.1c0.1,0,0.2-0.1,0.3-0.2c0-0.1,0.2,0,0.3,0c0,0,0.1,0,0.1,0c0.1-0.1,0-0.2,0-0.3
		c0.2-0.2,0.3-0.3,0.5-0.5c0.1-0.1,0.2-0.1,0.3-0.1c0.1,0,0.1,0.1,0.2,0.1c0.1,0,0.1,0.1,0.2,0.1c0,0,0.1,0,0.1,0.1
		c0.1,0.1,0.2,0.2,0.4,0.3c0,0,0-0.1,0.1,0c0-0.1,0-0.3-0.1-0.3c-0.1-0.1-0.2-0.2-0.3-0.3c0,0,0-0.1,0-0.2c0,0,0.1,0,0.1,0
		c0.1,0.1,0.2,0.1,0.2,0.1c0.2,0.1,0.1,0.3,0.3,0.4c0.1,0,0.1,0.2,0.2,0.2c0.1,0,0.3,0,0.4-0.1c0.1-0.1,0-0.1-0.1-0.2
		c-0.1-0.1,0.1-0.1,0.1-0.2c0.1-0.1,0-0.2,0-0.3c0,0,0-0.1,0.1-0.1c0,0,0,0,0,0c0.1-0.1,0-0.3,0.1-0.4c0,0,0.1,0,0.1,0
		c0,0.1,0.1,0.1,0.2,0.1c0.1,0,0.2-0.1,0.3-0.2c0.1-0.1,0.3-0.1,0.4,0.1c0,0.1,0,0.2-0.1,0.3c-0.3,0-0.5,0.1-0.7,0.3
		c0,0-0.1,0-0.1,0.1c-0.1,0.1-0.1,0.1-0.1,0.3c0,0.1-0.1,0.1-0.1,0.2c0.1,0,0.1,0.2,0.2,0.2c0.2,0,0.3,0,0.4-0.1c0,0,0.1-0.1,0-0.2
		c0.1,0,0.2-0.1,0.3-0.1c0.2,0,0.4,0.2,0.3,0.4c0,0-0.1,0-0.1,0.1c-0.1,0.2-0.2,0.4-0.4,0.4c-0.3,0.1-0.6,0.1-0.9,0.3
		c-0.1,0.1-0.1,0.2-0.3,0.3c-0.1,0-0.3,0.1-0.4,0v0c0,0.1-0.3,0-0.4,0c0,0,0-0.2-0.1-0.2c0,0-0.1,0-0.2,0c0,0,0-0.1,0-0.1
		c-0.3-0.1-0.6,0-1,0c-0.1,0-0.1,0.1-0.2,0.2c-0.1,0-0.1,0.1-0.2,0.1c-0.1,0.1-0.3,0.2-0.4,0.1c-0.1,0-0.3,0.1-0.4,0.1
		c-0.2,0-0.3,0.2-0.5,0.3c-0.1,0.1-0.3,0.1-0.4,0.1c0,0,0,0.1-0.1,0.1c-0.2,0.1-0.4,0.3-0.6,0.6c0,0.1,0,0.2,0,0.2
		c-0.1,0.2-0.2,0.4-0.3,0.5c0,0,0,0.1,0,0.1c0.2,0.2,0.4,0.4,0.6,0.7c0,0.1,0.1,0.1,0.2,0.1c0.1,0.2,0.2,0.3,0.3,0.5
		c0.1,0.2,0.4,0.3,0.7,0.2c0.1,0,0.2,0.1,0.3,0.1c0.3,0,0.6,0.1,0.9-0.1c0.4,0.1,0.9-0.1,1.2,0.1c0.1,0,0.1,0.2,0.1,0.3
		c0.1,0.2,0.2,0.3,0.4,0.5c0.1,0.1,0.3,0.2,0.5,0.2c0.1,0,0.1,0.1,0.1,0.2c0.1,0.1,0,0.2,0.1,0.2c0.1,0.1,0.2,0.2,0.2,0.3
		c0,0.2-0.2,0.3-0.1,0.5c0,0.1,0,0.2,0,0.2c0.2,0.2,0.5,0.5,0.8,0.7c0,0,0.1,0.1,0.1,0.1c0.1,0,0.1,0.1,0.2,0.2
		c0.1,0.1,0,0.2,0.1,0.3c0.1,0.1,0.2,0.2,0.3,0.3c0.1,0.1,0.4,0.1,0.5,0.1c0,0,0.1,0.1,0.1,0.1c0.2,0.1,0.3,0.1,0.5,0
		c0.1-0.1,0.2-0.2,0.2-0.2c0.1-0.1,0.3-0.1,0.5-0.1c0,0,0.1,0,0.1-0.1c0-0.1,0.1-0.2,0.1-0.3c0.1,0,0.2-0.1,0.3-0.1
		c0.2-0.1,0.4-0.3,0.6-0.5c0.2-0.2,0.5-0.1,0.6-0.3c0.1-0.2,0-0.5,0.1-0.7c0.1-0.1,0.1-0.2,0.1-0.4c0-0.2,0-0.4,0-0.6
		c0-0.1-0.1-0.2-0.1-0.4c0-0.1,0.2-0.1,0.2-0.2c0.1-0.2,0.1-0.3,0.2-0.5c0,0,0.1,0,0.1-0.1c0.1-0.1,0-0.1,0-0.2
		c-0.1,0-0.1-0.1-0.1-0.1c-0.2-0.3-0.3-0.5-0.6-0.6c-0.1,0-0.1-0.1-0.1-0.2c0,0,0-0.1,0-0.1c-0.1,0,0-0.1-0.1-0.2h0.1c0,0,0,0,0,0
		c0,0,0,0,0,0c0.1-0.2,0.2-0.3,0.3-0.4c0,0,0.1,0,0.2-0.1c0-0.2,0-0.3,0-0.4c-0.1-0.2,0-0.4,0-0.5c0-0.3,0-0.7-0.2-1
		c0-0.1-0.1-0.2-0.2-0.1c-0.1,0-0.1,0.1-0.1,0.1c0,0-0.1,0.1-0.1,0.2c0,0.1-0.2,0.2-0.2,0.3c0,0.1,0,0.1-0.1,0.2
		c-0.1,0.1-0.1,0.1-0.2,0.2c-0.1,0-0.2,0.1-0.4,0.1c-0.1,0-0.3,0-0.4,0c-0.7-0.2-1.3-0.5-2.1-0.7c0,0,0,0,0-0.1c0.1-0.1,0.2,0,0.4,0
		c0.1,0,0-0.1,0-0.1c0.2,0,0.3,0.1,0.4,0.2c0.3,0.1,0.6,0.1,0.9,0.2c0.2,0.1,0.4,0.2,0.7,0.3c0.2,0.1,0.3-0.1,0.5-0.2
		c0,0,0-0.1,0-0.1c0.1-0.1,0.2-0.2,0.3-0.3c0-0.1,0-0.2,0-0.3c0,0,0.1-0.1,0.1-0.1c0-0.2,0-0.3,0-0.5c0.1,0,0.2-0.1,0.1-0.1
		c0,0,0-0.1,0-0.1c0-0.1,0-0.2,0-0.3c0-0.2,0-0.4-0.1-0.6c0-0.1-0.2-0.1-0.3-0.1c0,0,0,0.1-0.1,0.1c-0.1,0-0.2,0.1-0.3,0.1
		c-0.1,0.1-0.1,0.2-0.2,0.3c-0.1,0.1-0.3,0.2-0.5,0.3c-0.1,0.1-0.3,0-0.3-0.1c-0.1-0.3,0.3-0.2,0.5-0.3c0,0,0.1-0.1,0.1-0.1
		c0.1-0.1,0.1-0.3,0.2-0.3c0.1,0,0.2,0,0.2,0c0.1,0,0.1-0.1,0.2-0.1c0.1,0,0.1-0.1,0.1-0.2c0-0.1,0.2-0.2,0.2-0.3
		c0.1-0.2,0.1-0.6,0.3-0.7c0.1-0.1,0.1,0.2,0.1,0.2c0.1,0.1,0.3,0.1,0.4,0c0.1-0.1,0-0.2,0.1-0.3c0.1,0,0.1,0,0.2,0
		c0.1,0.1,0.2,0.2,0.3,0.1c0.1,0,0.1-0.1,0.2-0.2c0.1,0,0.2,0,0.3,0c0.3-0.1,0.8,0,0.8-0.2c0-0.4-0.4-0.7-0.7-0.9
		c-0.3-0.1-0.2-0.5-0.4-0.8c-0.1,0,0-0.2-0.1-0.2c0,0-0.1-0.1-0.1-0.1c0,0-0.1-0.1-0.1-0.1c0-0.2-0.1-0.4,0.1-0.6
		c0.1-0.1,0.2-0.1,0.3-0.2c0.1-0.1,0.3-0.1,0.3-0.3c0-0.2,0-0.3,0-0.5c0-0.1,0.1-0.1,0.2-0.1c0.3,0,0.6,0.1,0.9-0.1
		c0.1-0.1,0.1-0.2,0.1-0.2c0.2-0.3,0.5-0.6,0.5-1c0-0.1,0.1-0.1,0.1-0.2C36.7,17.1,36.7,17.1,36.7,17.1 M30.9,23.9
		C30.9,23.9,31,24,30.9,23.9c-0.1,0.1-0.2,0.1-0.2,0c0-0.1-0.1-0.2-0.2-0.2c-0.1,0-0.1,0-0.2,0.1c-0.1-0.1-0.2,0-0.2,0
		c0-0.1-0.1-0.1-0.2-0.2c-0.1-0.1,0-0.2,0.1-0.3c0.1,0,0.2,0,0.2,0.1c0,0,0,0,0,0c0,0,0,0.1,0,0.1c0.1,0.1,0.2,0,0.3,0
		c0.1,0.1,0.2,0,0.3,0c0,0,0,0.1,0,0.1C31,23.6,31,23.8,30.9,23.9C31,23.9,31,23.9,30.9,23.9"/>
	<path fill="#FFFFFF" d="M19.3,45.9c1.6-2.4,6.5-5,11.4-5c4.8,0,10.1,2.8,12.2,1.3c0,0-2.1,1.8-6.4,1.8c-4.3,0-5.9-2.2-8.9-2.2
		c-3,0-6.1,2.4-7.4,4.4L19.3,45.9z"/>
	<path fill="#FFFFFF" d="M34.5,40.6c0,0,1.4-0.8,2.1-2.4c0.8-1.6,2.7-4,4.6-5.5c0,0-2.2,6.9-4.5,7.2c0,0-0.4,0.2,0.3,0.1
		c0.6-0.1,3.5-1.2,4.6-1.3c1-0.2,3.5-0.7,4.2-1.4c0.6-0.6,1-0.5,1-0.5S44,41.4,39,41.4C39,41.4,36.6,41.1,34.5,40.6"/>
	<path fill="#FFFFFF" d="M40.4,38.2c0,0,0.5-0.8,0.6-2.2c0.1-1.4,1-4.5,3.4-8c0,0,0.4,5.5-2.4,8.8c0,0-0.2,0.5,0.2,0.1
		c0.4-0.4,2.1-2.4,5.8-4.9c0,0,1.9-1.6,2-2.1C50.1,29.9,48.6,37.6,40.4,38.2"/>
	<path fill="#FFFFFF" d="M45.2,33c0,0,0.2-0.9,0.2-1.6c0-0.7-0.3-3.3-0.3-4.4c0-1.1,0.1-3.2,1-4.7c0,0,0,1.3,0.3,1.8
		c0.3,0.6,0.6,2.8,0.6,3.1c0,0.3-0.1,2.2-0.6,3.2c0,0,0.4-0.2,0.7-0.9c0.4-0.8,1.3-2.1,2.8-3.6c1.4-1.4,1.8-2.8,1.8-2.8
		s0.4,2.5-1.5,5.2c-1.9,2.7-2.6,2.2-3.7,3.3C46.5,31.6,45.3,33,45.2,33"/>
	<path fill="#FFFFFF" d="M48.1,26.8c0,0-0.1-1.6-0.3-2c-0.3-0.5-2-3.6-1.6-7.5c0,0,0.3-0.3,0.8,1.3c0.5,1.5,1.3,2,1.5,3.5
		c0.3,1.5,0.3,2.1,0.3,2.1s0.2,0.2,0.2,0c0-0.2,0.2-2.2,1-4.1c0.8-1.9,2-3.6,1.9-4.9c0,0,0.5,0,0.4,2.1
		C52.1,19.4,51.6,22.9,48.1,26.8"/>
	<path fill="#FFFFFF" d="M49,20.7c0,0-0.6-1.4-1-1.9c-0.4-0.4-3.4-4.7-3.6-6.7c0,0,0.2-0.1,0.5,0.4c0.3,0.5,1.7,1.9,1.9,2.1
		c0.3,0.2,1.7,1.8,1.9,3.5c0,0,0.1,0.2-0.1-2.6c-0.3-2.8,0.9-4.7-0.1-6.6c0,0,1.4,0.2,2.1,6c0,0,0,2-1.1,4.6
		C49.5,19.4,49.2,20.7,49,20.7"/>
	<path fill="#FFFFFF" d="M47.9,14.3c0,0-1.1-1.1-2-1.7c-0.9-0.5-3.6-3.3-4.1-5.4c0,0,0.2-0.2,1.1,0.9c0.7,0.9,1.4,0.5,3.4,3
		c0,0,0.3,0.6,0.4,0.5c0.1,0-0.1-0.6-0.1-0.6S46.2,9.6,46.2,9c0-0.6-0.8-3.6-1.1-4c0,0,2.7,1.6,3.1,5.9C48.2,11,48.1,14.1,47.9,14.3
		"/>
	<path fill="#FFFFFF" d="M45.6,9.6c0,0,0.2-3.8-4.9-5.8c0,0,1.7,3.6,3.1,4.4C45.1,9.2,45.6,9.6,45.6,9.6"/>
	<path fill="#FFFFFF" d="M32.7,45.9c-1.6-2.4-6.5-5-11.4-5c-4.8,0-10.1,2.8-12.2,1.3c0,0,2.1,1.8,6.4,1.8c4.3,0,5.9-2.2,8.9-2.2
		c3,0,6.1,2.4,7.4,4.4L32.7,45.9z"/>
	<path fill="#FFFFFF" d="M17.5,40.6c0,0-1.4-0.8-2.2-2.4c-0.7-1.6-2.7-4-4.6-5.5c0,0,2.2,6.9,4.5,7.2c0,0,0.4,0.2-0.3,0.1
		c-0.6-0.1-3.5-1.2-4.6-1.3c-1-0.2-3.5-0.7-4.2-1.4c-0.6-0.6-1-0.5-1-0.5s2.8,4.7,7.8,4.7C13,41.4,15.4,41.1,17.5,40.6"/>
	<path fill="#FFFFFF" d="M11.5,38.2c0,0-0.5-0.8-0.6-2.2c-0.1-1.4-1-4.5-3.4-8c0,0-0.4,5.5,2.4,8.8c0,0,0.2,0.5-0.2,0.1
		c-0.4-0.4-2.1-2.4-5.8-4.9c0,0-1.9-1.6-2-2.1C1.9,29.9,3.4,37.6,11.5,38.2"/>
	<path fill="#FFFFFF" d="M6.8,33c0,0-0.2-0.9-0.2-1.6C6.6,30.6,7,28,7,26.9c0-1.1-0.1-3.2-1-4.7c0,0,0,1.3-0.3,1.8
		c-0.3,0.6-0.6,2.8-0.6,3.1c0,0.3,0.1,2.2,0.6,3.2c0,0-0.4-0.2-0.8-0.9c-0.4-0.8-1.3-2.1-2.8-3.6c-1.4-1.4-1.8-2.8-1.8-2.8
		S0,25.6,1.9,28.3c1.9,2.7,2.6,2.2,3.7,3.3C5.5,31.6,6.7,33,6.8,33"/>
	<path fill="#FFFFFF" d="M3.9,26.8c0,0,0.1-1.6,0.4-2c0.3-0.5,2-3.6,1.6-7.5c0,0-0.3-0.3-0.8,1.3c-0.5,1.5-1.3,2-1.5,3.5
		c-0.2,1.5-0.2,2.1-0.2,2.1s-0.2,0.2-0.2,0c0-0.2-0.2-2.2-1-4.1c-0.8-1.9-2-3.6-1.9-4.9c0,0-0.5,0-0.4,2.1
		C-0.1,19.4,0.4,22.9,3.9,26.8"/>
	<path fill="#FFFFFF" d="M3,20.7c0,0,0.6-1.4,1-1.9c0.4-0.4,3.3-4.7,3.6-6.7c0,0-0.3-0.1-0.5,0.4c-0.3,0.5-1.7,1.9-1.9,2.1
		c-0.3,0.2-1.7,1.8-1.9,3.5c0,0-0.1,0.2,0.2-2.6c0.3-2.8-0.9-4.7,0.1-6.6c0,0-1.4,0.2-2.1,6c0,0,0,2,1.1,4.6
		C2.5,19.4,2.8,20.7,3,20.7"/>
	<path fill="#FFFFFF" d="M4.1,14.3c0,0,1.1-1.1,2-1.7c0.9-0.5,3.6-3.3,4.1-5.4c0,0-0.2-0.2-1.1,0.9c-0.7,0.9-1.4,0.5-3.4,3
		c0,0-0.3,0.6-0.4,0.5c-0.1,0,0.1-0.6,0.1-0.6S5.8,9.6,5.8,9c0-0.6,0.9-3.6,1.1-4c0,0-2.7,1.6-3.1,5.9C3.8,11,3.9,14.1,4.1,14.3"/>
	<path fill="#FFFFFF" d="M6.4,9.6c0,0-0.2-3.8,4.8-5.8c0,0-1.7,3.6-3,4.4C6.9,9.2,6.4,9.6,6.4,9.6"/>
	<path fill="#FFFFFF" d="M197.3,9.5v4.4c0,0.9,0.4,2,1.8,2c1.3,0,1.8-1.1,1.8-2V9.5h1V14c0,1.6-1.2,2.8-2.8,2.8s-2.8-1.1-2.8-2.8
		V9.5H197.3z"/>
	<path fill="#FFFFFF" d="M203.3,11.8h0.9v0.7h0c0.2-0.5,0.8-0.9,1.6-0.9c0.9,0,1.7,0.6,1.7,1.8v3.1h-0.9v-2.8c0-0.9-0.5-1.2-1.1-1.2
		c-0.8,0-1.3,0.5-1.3,1.6v2.5h-0.9V11.8z"/>
	<path fill="#FFFFFF" d="M209.4,9.5c0.4,0,0.7,0.3,0.7,0.7c0,0.4-0.3,0.7-0.7,0.7c-0.4,0-0.7-0.3-0.7-0.7
		C208.8,9.8,209.1,9.5,209.4,9.5 M209,11.8h0.9v4.8H209V11.8z"/>
	<path fill="#FFFFFF" d="M213.9,12.6h-1.3v2.2c0,0.5,0,1.1,0.7,1.1c0.2,0,0.5,0,0.6-0.1v0.8c-0.2,0.1-0.6,0.2-0.8,0.2
		c-1.4,0-1.4-0.9-1.4-1.6v-2.5h-1v-0.8h1v-1.3h0.9v1.3h1.3V12.6z"/>
	<path fill="#FFFFFF" d="M215.7,14.6c0,0.8,0.8,1.4,1.6,1.4c0.6,0,1-0.3,1.3-0.7l0.7,0.5c-0.5,0.7-1.2,1-2.1,1
		c-1.5,0-2.5-1.1-2.5-2.5c0-1.4,1-2.5,2.5-2.5c1.7,0,2.3,1.3,2.3,2.5v0.3H215.7z M218.6,13.8c0-0.8-0.5-1.4-1.4-1.4
		c-0.9,0-1.5,0.8-1.5,1.4H218.6z"/>
	<path fill="#FFFFFF" d="M225.4,16.6h-0.9v-0.7h0c-0.3,0.5-1,0.8-1.7,0.8c-1.5,0-2.4-1.1-2.4-2.5c0-1.4,1-2.5,2.4-2.5
		c0.7,0,1.3,0.3,1.7,0.8h0V9h0.9V16.6z M224.5,14.2c0-1-0.6-1.7-1.6-1.7c-1,0-1.6,0.7-1.6,1.7c0,1,0.6,1.7,1.6,1.7
		C223.9,15.9,224.5,15.2,224.5,14.2"/>
	<polygon fill="#FFFFFF" points="232.5,9.5 233.8,9.5 237.7,15.3 237.8,15.3 237.8,9.5 238.7,9.5 238.7,16.6 237.5,16.6 233.5,10.8 
		233.5,10.8 233.5,16.6 232.5,16.6 	"/>
	<path fill="#FFFFFF" d="M240.3,12.4c0.5-0.5,1.2-0.7,1.9-0.7c1.4,0,2,0.8,2,1.6v2.4c0,0.3,0,0.6,0,0.9h-0.8c0-0.2,0-0.5,0-0.7h0
		c-0.4,0.6-0.9,0.8-1.7,0.8c-0.9,0-1.6-0.5-1.6-1.4c0-1.2,1.2-1.6,2.6-1.6h0.7v-0.2c0-0.5-0.4-1-1.1-1c-0.7,0-1,0.3-1.4,0.5
		L240.3,12.4z M242.9,14.3c-0.9,0-1.9,0.2-1.9,0.9c0,0.5,0.4,0.8,1,0.8c1,0,1.4-0.7,1.4-1.4v-0.3H242.9z"/>
	<path fill="#FFFFFF" d="M248.1,12.6h-1.3v2.2c0,0.5,0,1.1,0.7,1.1c0.2,0,0.5,0,0.6-0.1v0.8c-0.2,0.1-0.6,0.2-0.8,0.2
		c-1.4,0-1.4-0.9-1.4-1.6v-2.5h-1v-0.8h1v-1.3h0.9v1.3h1.3V12.6z"/>
	<path fill="#FFFFFF" d="M249.8,9.5c0.4,0,0.7,0.3,0.7,0.7c0,0.4-0.3,0.7-0.7,0.7c-0.4,0-0.7-0.3-0.7-0.7
		C249.1,9.8,249.4,9.5,249.8,9.5 M249.3,11.8h0.9v4.8h-0.9V11.8z"/>
	<path fill="#FFFFFF" d="M254,11.7c1.4,0,2.5,1.1,2.5,2.5c0,1.4-1.1,2.5-2.5,2.5c-1.4,0-2.5-1.1-2.5-2.5
		C251.4,12.8,252.5,11.7,254,11.7 M254,15.9c1,0,1.6-0.7,1.6-1.7c0-1-0.6-1.7-1.6-1.7c-1,0-1.6,0.7-1.6,1.7
		C252.4,15.2,253,15.9,254,15.9"/>
	<path fill="#FFFFFF" d="M257.6,11.8h0.9v0.7h0c0.2-0.5,0.8-0.9,1.6-0.9c0.9,0,1.7,0.6,1.7,1.8v3.1h-0.9v-2.8c0-0.9-0.5-1.2-1.1-1.2
		c-0.8,0-1.3,0.5-1.3,1.6v2.5h-0.9V11.8z"/>
	<path fill="#FFFFFF" d="M265.7,13c-0.2-0.3-0.5-0.5-1-0.5c-0.4,0-0.8,0.2-0.8,0.5c0,0.6,0.8,0.7,1.2,0.7c0.8,0.2,1.4,0.5,1.4,1.4
		c0,1.1-1,1.5-1.9,1.5c-0.8,0-1.4-0.2-1.8-0.8l0.7-0.6c0.3,0.3,0.6,0.6,1.2,0.6c0.5,0,1-0.2,1-0.6c0-0.5-0.8-0.6-1.1-0.7
		c-0.8-0.2-1.5-0.4-1.5-1.4c0-1,0.9-1.5,1.8-1.5c0.6,0,1.3,0.2,1.6,0.8L265.7,13z"/>
	<path fill="#FFFFFF" d="M273,13c0-2.1,1.5-3.7,3.7-3.7c2.2,0,3.7,1.6,3.7,3.7c0,2.1-1.5,3.7-3.7,3.7C274.6,16.8,273,15.2,273,13
		 M279.4,13c0-1.6-1.1-2.8-2.7-2.8c-1.6,0-2.7,1.3-2.7,2.8c0,1.6,1.1,2.8,2.7,2.8C278.4,15.9,279.4,14.6,279.4,13"/>
	<path fill="#FFFFFF" d="M281.9,12.6h-1v-0.8h1v-1.1c0-1.3,0.4-1.9,1.6-1.9c0.2,0,0.4,0,0.7,0.1l-0.1,0.8c-0.2-0.1-0.3-0.1-0.5-0.1
		c-0.7,0-0.8,0.4-0.8,1.1v1.1h1.1v0.8h-1.1v4h-0.9V12.6z"/>
	<path fill="#FFFFFF" d="M285.1,12.6h-1v-0.8h1v-1.1c0-1.3,0.4-1.9,1.6-1.9c0.2,0,0.4,0,0.7,0.1l-0.1,0.8c-0.2-0.1-0.3-0.1-0.5-0.1
		c-0.7,0-0.8,0.4-0.8,1.1v1.1h1.1v0.8H286v4h-0.9V12.6z M288.4,9.5c0.4,0,0.7,0.3,0.7,0.7c0,0.4-0.3,0.7-0.7,0.7
		c-0.4,0-0.7-0.3-0.7-0.7C287.8,9.8,288.1,9.5,288.4,9.5 M288,11.8h0.9v4.8H288V11.8z"/>
	<path fill="#FFFFFF" d="M293.7,13.1c-0.3-0.4-0.7-0.5-1.2-0.5c-1,0-1.5,0.8-1.5,1.7c0,0.9,0.6,1.6,1.5,1.6c0.5,0,0.9-0.2,1.2-0.5
		l0.6,0.6c-0.5,0.5-1.1,0.7-1.8,0.7c-1.5,0-2.5-1-2.5-2.5c0-1.5,1-2.5,2.5-2.5c0.7,0,1.4,0.2,1.8,0.8L293.7,13.1z"/>
	<path fill="#FFFFFF" d="M295.9,14.6c0,0.8,0.8,1.4,1.6,1.4c0.6,0,1-0.3,1.3-0.7l0.7,0.5c-0.5,0.7-1.2,1-2.1,1
		c-1.5,0-2.5-1.1-2.5-2.5c0-1.4,1-2.5,2.5-2.5c1.7,0,2.3,1.3,2.3,2.5v0.3H295.9z M298.7,13.8c0-0.8-0.5-1.4-1.4-1.4
		c-0.9,0-1.5,0.8-1.5,1.4H298.7z"/>
	<path fill="#FFFFFF" d="M196.6,24.7h-1v-0.8h1v-1.1c0-1.3,0.4-1.9,1.6-1.9c0.2,0,0.4,0,0.7,0.1l-0.1,0.8c-0.2-0.1-0.3-0.1-0.5-0.1
		c-0.7,0-0.8,0.4-0.8,1.1v1.1h1.1v0.8h-1.1v4h-0.9V24.7z"/>
	<path fill="#FFFFFF" d="M201.9,23.8c1.4,0,2.5,1.1,2.5,2.5c0,1.4-1.1,2.5-2.5,2.5c-1.4,0-2.5-1.1-2.5-2.5
		C199.4,24.9,200.5,23.8,201.9,23.8 M201.9,27.9c1,0,1.6-0.7,1.6-1.7c0-1-0.6-1.7-1.6-1.7c-1,0-1.6,0.7-1.6,1.7
		C200.3,27.2,200.9,27.9,201.9,27.9"/>
	<path fill="#FFFFFF" d="M205.6,23.9h0.9v0.7h0c0.2-0.5,0.8-0.9,1.4-0.9c0.1,0,0.3,0,0.4,0.1l0,1c-0.2,0-0.3-0.1-0.4-0.1
		c-0.9,0-1.4,0.5-1.4,1.5v2.4h-0.9V23.9z"/>
	<path fill="#FFFFFF" d="M214.4,24.7h-1.3v2.2c0,0.5,0,1.1,0.7,1.1c0.2,0,0.5,0,0.6-0.1v0.8c-0.2,0.1-0.6,0.2-0.8,0.2
		c-1.4,0-1.4-0.9-1.4-1.6v-2.5h-1v-0.8h1v-1.3h0.9v1.3h1.3V24.7z"/>
	<path fill="#FFFFFF" d="M215.6,21.1h0.9v3.6h0c0.2-0.5,0.8-0.9,1.6-0.9c0.9,0,1.7,0.6,1.7,1.8v3.1h-0.9v-2.8c0-0.9-0.5-1.2-1.1-1.2
		c-0.8,0-1.3,0.5-1.3,1.6v2.5h-0.9V21.1z"/>
	<path fill="#FFFFFF" d="M221.8,26.6c0,0.8,0.8,1.4,1.6,1.4c0.6,0,1-0.3,1.3-0.7l0.7,0.5c-0.5,0.7-1.2,1-2.1,1
		c-1.5,0-2.5-1.1-2.5-2.5c0-1.4,1-2.5,2.5-2.5c1.7,0,2.3,1.3,2.3,2.5v0.3H221.8z M224.7,25.9c0-0.8-0.5-1.4-1.4-1.4
		c-0.9,0-1.5,0.8-1.5,1.4H224.7z"/>
	<path fill="#FFFFFF" d="M234.5,23.1c-0.4-0.5-1.1-0.8-1.7-0.8c-1.6,0-2.7,1.3-2.7,2.9c0,1.5,1,2.8,2.7,2.8c0.8,0,1.4-0.4,1.9-1
		l0.8,0.6c-0.2,0.3-1.1,1.2-2.7,1.2c-2.3,0-3.7-1.9-3.7-3.7c0-2.2,1.5-3.8,3.7-3.8c0.9,0,1.9,0.4,2.5,1.1L234.5,23.1z"/>
	<path fill="#FFFFFF" d="M238.7,23.8c1.4,0,2.5,1.1,2.5,2.5c0,1.4-1.1,2.5-2.5,2.5c-1.4,0-2.5-1.1-2.5-2.5
		C236.2,24.9,237.3,23.8,238.7,23.8 M238.7,27.9c1,0,1.6-0.7,1.6-1.7c0-1-0.6-1.7-1.6-1.7c-1,0-1.6,0.7-1.6,1.7
		C237.1,27.2,237.7,27.9,238.7,27.9"/>
	<path fill="#FFFFFF" d="M244.6,23.8c1.4,0,2.5,1.1,2.5,2.5c0,1.4-1.1,2.5-2.5,2.5c-1.4,0-2.5-1.1-2.5-2.5
		C242.1,24.9,243.2,23.8,244.6,23.8 M244.6,27.9c1,0,1.6-0.7,1.6-1.7c0-1-0.6-1.7-1.6-1.7c-1,0-1.6,0.7-1.6,1.7
		C243.1,27.2,243.7,27.9,244.6,27.9"/>
	<path fill="#FFFFFF" d="M248.3,23.9h0.9v0.7h0c0.2-0.5,0.8-0.9,1.4-0.9c0.1,0,0.3,0,0.4,0.1l0,1c-0.2,0-0.3-0.1-0.4-0.1
		c-0.9,0-1.4,0.5-1.4,1.5v2.4h-0.9V23.9z"/>
	<path fill="#FFFFFF" d="M256.6,28.7h-0.9V28h0c-0.4,0.5-1,0.8-1.7,0.8c-1.5,0-2.4-1.1-2.4-2.5c0-1.4,1-2.5,2.4-2.5
		c0.7,0,1.3,0.3,1.7,0.8h0v-3.5h0.9V28.7z M255.7,26.3c0-1-0.6-1.7-1.6-1.7c-1,0-1.6,0.7-1.6,1.7c0,1,0.6,1.7,1.6,1.7
		C255.1,27.9,255.7,27.2,255.7,26.3"/>
	<path fill="#FFFFFF" d="M258.5,21.5c0.4,0,0.7,0.3,0.7,0.7c0,0.4-0.3,0.7-0.7,0.7c-0.4,0-0.7-0.3-0.7-0.7
		C257.9,21.8,258.2,21.5,258.5,21.5 M258.1,23.9h0.9v4.8h-0.9V23.9z"/>
	<path fill="#FFFFFF" d="M260.4,23.9h0.9v0.7h0c0.2-0.5,0.8-0.9,1.6-0.9c0.9,0,1.7,0.6,1.7,1.8v3.1h-0.9v-2.8c0-0.9-0.5-1.2-1.1-1.2
		c-0.8,0-1.3,0.5-1.3,1.6v2.5h-0.9V23.9z"/>
	<path fill="#FFFFFF" d="M266,24.5c0.5-0.5,1.2-0.7,1.9-0.7c1.4,0,2,0.8,2,1.6v2.4c0,0.3,0,0.6,0,0.9h-0.8c0-0.2,0-0.5,0-0.7h0
		c-0.4,0.6-0.9,0.8-1.7,0.8c-0.9,0-1.6-0.5-1.6-1.4c0-1.2,1.2-1.6,2.6-1.6h0.7v-0.2c0-0.5-0.4-1-1.1-1c-0.7,0-1,0.3-1.4,0.5
		L266,24.5z M268.6,26.4c-0.9,0-1.9,0.2-1.9,0.9c0,0.5,0.4,0.8,1,0.8c1,0,1.4-0.7,1.4-1.4v-0.3H268.6z"/>
	<path fill="#FFFFFF" d="M273.8,24.7h-1.3v2.2c0,0.5,0,1.1,0.7,1.1c0.2,0,0.5,0,0.6-0.1v0.8c-0.2,0.1-0.6,0.2-0.8,0.2
		c-1.4,0-1.4-0.9-1.4-1.6v-2.5h-1v-0.8h1v-1.3h0.9v1.3h1.3V24.7z"/>
	<path fill="#FFFFFF" d="M275.4,21.5c0.4,0,0.7,0.3,0.7,0.7c0,0.4-0.3,0.7-0.7,0.7c-0.4,0-0.7-0.3-0.7-0.7
		C274.8,21.8,275.1,21.5,275.4,21.5 M275,23.9h0.9v4.8H275V23.9z"/>
	<path fill="#FFFFFF" d="M279.6,23.8c1.4,0,2.5,1.1,2.5,2.5c0,1.4-1.1,2.5-2.5,2.5c-1.4,0-2.5-1.1-2.5-2.5
		C277.1,24.9,278.2,23.8,279.6,23.8 M279.6,27.9c1,0,1.6-0.7,1.6-1.7c0-1-0.6-1.7-1.6-1.7c-1,0-1.6,0.7-1.6,1.7
		C278.1,27.2,278.7,27.9,279.6,27.9"/>
	<path fill="#FFFFFF" d="M283.3,23.9h0.9v0.7h0c0.2-0.5,0.8-0.9,1.6-0.9c0.9,0,1.7,0.6,1.7,1.8v3.1h-0.9v-2.8c0-0.9-0.5-1.2-1.1-1.2
		c-0.8,0-1.3,0.5-1.3,1.6v2.5h-0.9V23.9z"/>
	<path fill="#FFFFFF" d="M293.8,23.8c1.4,0,2.5,1.1,2.5,2.5c0,1.4-1.1,2.5-2.5,2.5c-1.4,0-2.5-1.1-2.5-2.5
		C291.2,24.9,292.3,23.8,293.8,23.8 M293.8,27.9c1,0,1.6-0.7,1.6-1.7c0-1-0.6-1.7-1.6-1.7c-1,0-1.6,0.7-1.6,1.7
		C292.2,27.2,292.8,27.9,293.8,27.9"/>
	<path fill="#FFFFFF" d="M297.8,24.7h-1v-0.8h1v-1.1c0-1.3,0.4-1.9,1.6-1.9c0.2,0,0.4,0,0.7,0.1l-0.1,0.8c-0.2-0.1-0.3-0.1-0.5-0.1
		c-0.7,0-0.8,0.4-0.8,1.1v1.1h1.1v0.8h-1.1v4h-0.9V24.7z"/>
	<polygon fill="#FFFFFF" points="196.5,33.6 197.4,33.6 197.4,36.6 201.1,36.6 201.1,33.6 202.1,33.6 202.1,40.7 201.1,40.7 
		201.1,37.5 197.4,37.5 197.4,40.7 196.5,40.7 	"/>
	<path fill="#FFFFFF" d="M208.3,40.7h-0.9V40h0c-0.2,0.5-0.8,0.9-1.6,0.9c-0.9,0-1.7-0.6-1.7-1.8v-3.1h0.9v2.8
		c0,0.9,0.5,1.2,1.1,1.2c0.8,0,1.3-0.5,1.3-1.6v-2.5h0.9V40.7z"/>
	<path fill="#FFFFFF" d="M210.1,35.9h0.8v0.7h0c0.1-0.3,0.7-0.9,1.5-0.9c0.7,0,1.2,0.3,1.5,0.9c0.3-0.6,0.9-0.9,1.5-0.9
		c1.5,0,1.8,1,1.8,2.1v2.8h-0.9v-2.7c0-0.7-0.1-1.4-1-1.4c-0.9,0-1.2,0.6-1.2,1.4v2.6h-0.9v-2.5c0-0.9-0.1-1.5-1-1.5
		c-0.7,0-1.2,0.5-1.2,1.6v2.5h-0.9V35.9z"/>
	<path fill="#FFFFFF" d="M219.1,36.5c0.5-0.5,1.2-0.7,1.9-0.7c1.4,0,2,0.8,2,1.6v2.4c0,0.3,0,0.6,0,0.9h-0.8c0-0.2,0-0.5,0-0.7h0
		c-0.4,0.6-0.9,0.8-1.7,0.8c-0.9,0-1.6-0.5-1.6-1.4c0-1.2,1.2-1.6,2.6-1.6h0.7v-0.2c0-0.5-0.4-1-1.1-1c-0.7,0-1,0.3-1.4,0.5
		L219.1,36.5z M221.6,38.4c-0.9,0-1.9,0.2-1.9,0.9c0,0.5,0.4,0.8,1,0.8c1,0,1.4-0.7,1.4-1.4v-0.3H221.6z"/>
	<path fill="#FFFFFF" d="M224.7,35.9h0.9v0.7h0c0.2-0.5,0.8-0.9,1.6-0.9c0.9,0,1.7,0.6,1.7,1.8v3.1H228v-2.8c0-0.9-0.5-1.2-1.1-1.2
		c-0.8,0-1.3,0.5-1.3,1.6v2.5h-0.9V35.9z"/>
	<path fill="#FFFFFF" d="M231.2,33.6c0.4,0,0.7,0.3,0.7,0.7c0,0.4-0.3,0.7-0.7,0.7c-0.4,0-0.7-0.3-0.7-0.7
		C230.5,33.9,230.8,33.6,231.2,33.6 M230.7,35.9h0.9v4.8h-0.9V35.9z"/>
	<path fill="#FFFFFF" d="M236,36.7h-1.3v2.2c0,0.5,0,1.1,0.7,1.1c0.2,0,0.5,0,0.6-0.1v0.8c-0.2,0.1-0.6,0.2-0.8,0.2
		c-1.4,0-1.4-0.9-1.4-1.6v-2.5h-1v-0.8h1v-1.3h0.9v1.3h1.3V36.7z"/>
	<path fill="#FFFFFF" d="M237.6,36.5c0.5-0.5,1.2-0.7,1.9-0.7c1.4,0,2,0.8,2,1.6v2.4c0,0.3,0,0.6,0,0.9h-0.8c0-0.2,0-0.5,0-0.7h0
		c-0.4,0.6-0.9,0.8-1.7,0.8c-0.9,0-1.6-0.5-1.6-1.4c0-1.2,1.2-1.6,2.6-1.6h0.7v-0.2c0-0.5-0.4-1-1.1-1c-0.7,0-1,0.3-1.4,0.5
		L237.6,36.5z M240.2,38.4c-0.9,0-1.9,0.2-1.9,0.9c0,0.5,0.4,0.8,1,0.8c1,0,1.4-0.7,1.4-1.4v-0.3H240.2z"/>
	<path fill="#FFFFFF" d="M243.2,35.9h0.9v0.7h0c0.2-0.5,0.8-0.9,1.4-0.9c0.1,0,0.3,0,0.4,0.1l0,1c-0.2,0-0.3-0.1-0.4-0.1
		c-0.9,0-1.4,0.5-1.4,1.5v2.4h-0.9V35.9z"/>
	<path fill="#FFFFFF" d="M247.8,33.6c0.4,0,0.7,0.3,0.7,0.7c0,0.4-0.3,0.7-0.7,0.7c-0.4,0-0.7-0.3-0.7-0.7
		C247.2,33.9,247.5,33.6,247.8,33.6 M247.4,35.9h0.9v4.8h-0.9V35.9z"/>
	<path fill="#FFFFFF" d="M250.2,36.5c0.5-0.5,1.2-0.7,1.9-0.7c1.4,0,2,0.8,2,1.6v2.4c0,0.3,0,0.6,0,0.9h-0.8c0-0.2,0-0.5,0-0.7h0
		c-0.4,0.6-0.9,0.8-1.7,0.8c-0.9,0-1.6-0.5-1.6-1.4c0-1.2,1.2-1.6,2.6-1.6h0.7v-0.2c0-0.5-0.4-1-1.1-1c-0.7,0-1,0.3-1.4,0.5
		L250.2,36.5z M252.7,38.4c-0.9,0-1.9,0.2-1.9,0.9c0,0.5,0.4,0.8,1,0.8c1,0,1.4-0.7,1.4-1.4v-0.3H252.7z"/>
	<path fill="#FFFFFF" d="M255.8,35.9h0.9v0.7h0c0.2-0.5,0.8-0.9,1.6-0.9c0.9,0,1.7,0.6,1.7,1.8v3.1h-0.9v-2.8c0-0.9-0.5-1.2-1.1-1.2
		c-0.8,0-1.3,0.5-1.3,1.6v2.5h-0.9V35.9z"/>
	<path fill="#FFFFFF" d="M271.4,33.6h0.9l3,7.1h-1.1l-0.7-1.8h-3.4l-0.7,1.8h-1.1L271.4,33.6z M273.2,38.1l-1.3-3.3h0l-1.3,3.3
		H273.2z"/>
	<path fill="#FFFFFF" d="M276.8,36.7h-1v-0.8h1v-1.1c0-1.3,0.4-1.9,1.6-1.9c0.2,0,0.4,0,0.7,0.1l-0.1,0.8c-0.2-0.1-0.3-0.1-0.5-0.1
		c-0.7,0-0.8,0.4-0.8,1.1v1.1h1.1v0.8h-1.1v4h-0.9V36.7z"/>
	<path fill="#FFFFFF" d="M280.4,36.7h-1v-0.8h1v-1.1c0-1.3,0.4-1.9,1.6-1.9c0.2,0,0.4,0,0.7,0.1l-0.1,0.8c-0.2-0.1-0.3-0.1-0.5-0.1
		c-0.7,0-0.8,0.4-0.8,1.1v1.1h1.1v0.8h-1.1v4h-0.9V36.7z"/>
	<path fill="#FFFFFF" d="M283.8,36.5c0.5-0.5,1.2-0.7,1.9-0.7c1.4,0,2,0.8,2,1.6v2.4c0,0.3,0,0.6,0,0.9h-0.8c0-0.2,0-0.5,0-0.7h0
		c-0.4,0.6-0.9,0.8-1.7,0.8c-0.9,0-1.6-0.5-1.6-1.4c0-1.2,1.2-1.6,2.6-1.6h0.7v-0.2c0-0.5-0.4-1-1.1-1c-0.7,0-1,0.3-1.4,0.5
		L283.8,36.5z M286.3,38.4c-0.9,0-1.9,0.2-1.9,0.9c0,0.5,0.4,0.8,1,0.8c1,0,1.4-0.7,1.4-1.4v-0.3H286.3z"/>
	<path fill="#FFFFFF" d="M289.9,33.6c0.4,0,0.7,0.3,0.7,0.7c0,0.4-0.3,0.7-0.7,0.7c-0.4,0-0.7-0.3-0.7-0.7
		C289.2,33.9,289.5,33.6,289.9,33.6 M289.4,35.9h0.9v4.8h-0.9V35.9z"/>
	<path fill="#FFFFFF" d="M292.2,35.9h0.9v0.7h0c0.2-0.5,0.8-0.9,1.4-0.9c0.1,0,0.3,0,0.4,0.1l0,1c-0.2,0-0.3-0.1-0.4-0.1
		c-0.9,0-1.4,0.5-1.4,1.5v2.4h-0.9V35.9z"/>
	<path fill="#FFFFFF" d="M298.8,37.1c-0.2-0.3-0.5-0.5-1-0.5c-0.4,0-0.8,0.2-0.8,0.5c0,0.6,0.8,0.7,1.2,0.7c0.8,0.2,1.4,0.5,1.4,1.4
		c0,1.1-1,1.5-1.9,1.5c-0.8,0-1.4-0.2-1.8-0.8l0.7-0.6c0.3,0.3,0.6,0.6,1.2,0.6c0.5,0,1-0.2,1-0.6c0-0.5-0.8-0.6-1.1-0.7
		c-0.8-0.2-1.5-0.4-1.5-1.4c0-1,0.9-1.5,1.8-1.5c0.6,0,1.3,0.2,1.6,0.8L298.8,37.1z"/>
</g>
</svg>
